<svg width="211" height="211" viewBox="0 0 211 211" fill="none" xmlns="http://www.w3.org/2000/svg">
<rect x="0.500125" y="0.500125" width="210" height="209.997" rx="49.5124" fill="white" stroke="#BABABA" stroke-width="1.00025"/>
<mask id="path-2-inside-1_41_588" fill="white">
<path fill-rule="evenodd" clip-rule="evenodd" d="M124.004 107.999C115.166 107.999 108 115.164 108 124.003V142.998C108 162.328 123.67 177.998 143 177.998C162.33 177.998 178 162.328 178 142.998C178 123.669 162.33 107.999 143 107.999H124.004Z"/>
</mask>
<path fill-rule="evenodd" clip-rule="evenodd" d="M124.004 107.999C115.166 107.999 108 115.164 108 124.003V142.998C108 162.328 123.67 177.998 143 177.998C162.33 177.998 178 162.328 178 142.998C178 123.669 162.33 107.999 143 107.999H124.004Z" fill="url(#paint0_linear_41_588)"/>
<path d="M109.001 124.003C109.001 115.716 115.718 108.999 124.004 108.999V106.999C114.613 106.999 107 114.612 107 124.003H109.001ZM109.001 142.998V124.003H107V142.998H109.001ZM143 176.998C124.223 176.998 109.001 161.776 109.001 142.998H107C107 162.881 123.118 178.998 143 178.998V176.998ZM177 142.998C177 161.776 161.778 176.998 143 176.998V178.998C162.883 178.998 179.001 162.881 179.001 142.998H177ZM143 108.999C161.778 108.999 177 124.221 177 142.998H179.001C179.001 123.116 162.883 106.999 143 106.999V108.999ZM124.004 108.999H143V106.999H124.004V108.999Z" fill="#2D37FA" mask="url(#path-2-inside-1_41_588)"/>
<mask id="path-4-inside-2_41_588" fill="white">
<path fill-rule="evenodd" clip-rule="evenodd" d="M103 124.003C103 115.164 95.8343 107.999 86.9956 107.999L67.9996 107.999C48.6696 107.999 32.9996 123.669 32.9996 142.998C32.9996 162.328 48.6696 177.998 67.9996 177.998C87.3295 177.998 103 162.328 103 142.998L103 124.003Z"/>
</mask>
<path fill-rule="evenodd" clip-rule="evenodd" d="M103 124.003C103 115.164 95.8343 107.999 86.9956 107.999L67.9996 107.999C48.6696 107.999 32.9996 123.669 32.9996 142.998C32.9996 162.328 48.6696 177.998 67.9996 177.998C87.3295 177.998 103 162.328 103 142.998L103 124.003Z" fill="url(#paint1_linear_41_588)"/>
<path d="M86.9956 108.999C95.2819 108.999 101.999 115.716 101.999 124.003L104 124.003C104 114.612 96.3868 106.999 86.9956 106.999L86.9956 108.999ZM67.9996 108.999L86.9956 108.999L86.9956 106.999L67.9996 106.999L67.9996 108.999ZM33.9998 142.998C33.9998 124.221 49.222 108.999 67.9996 108.999L67.9996 106.999C48.1172 106.999 31.9993 123.116 31.9993 142.998L33.9998 142.998ZM67.9996 176.998C49.222 176.998 33.9998 161.776 33.9998 142.998L31.9993 142.998C31.9993 162.881 48.1172 178.998 67.9996 178.998L67.9996 176.998ZM101.999 142.998C101.999 161.776 86.7771 176.998 67.9996 176.998L67.9996 178.998C87.8819 178.998 104 162.881 104 142.998L101.999 142.998ZM101.999 124.003L101.999 142.998L104 142.998L104 124.003L101.999 124.003Z" fill="#F82031" mask="url(#path-4-inside-2_41_588)"/>
<mask id="path-6-inside-3_41_588" fill="white">
<path fill-rule="evenodd" clip-rule="evenodd" d="M86.9956 102.999C95.8343 102.999 103 95.8338 103 86.995L103 67.9994C103 48.6697 87.3295 32.9998 67.9996 32.9998C48.6696 32.9998 32.9996 48.6696 32.9996 67.9994C32.9996 87.3292 48.6696 102.999 67.9996 102.999L86.9956 102.999Z"/>
</mask>
<path fill-rule="evenodd" clip-rule="evenodd" d="M86.9956 102.999C95.8343 102.999 103 95.8338 103 86.995L103 67.9994C103 48.6697 87.3295 32.9998 67.9996 32.9998C48.6696 32.9998 32.9996 48.6696 32.9996 67.9994C32.9996 87.3292 48.6696 102.999 67.9996 102.999L86.9956 102.999Z" fill="url(#paint2_linear_41_588)"/>
<path d="M86.9956 102.999L86.9956 101.999L86.9956 102.999ZM67.9996 102.999L67.9996 103.999L67.9996 102.999ZM101.999 86.995C101.999 95.2814 95.2819 101.999 86.9956 101.999L86.9956 103.999C96.3868 103.999 104 96.3862 104 86.995L101.999 86.995ZM101.999 67.9994L101.999 86.995L104 86.995L104 67.9994L101.999 67.9994ZM67.9996 34C86.7771 34 101.999 49.2221 101.999 67.9994L104 67.9994C104 48.1172 87.882 31.9995 67.9996 31.9995L67.9996 34ZM33.9998 67.9994C33.9998 49.2221 49.222 34 67.9996 34L67.9996 31.9995C48.1172 31.9995 31.9993 48.1172 31.9993 67.9994L33.9998 67.9994ZM67.9996 101.999C49.222 101.999 33.9998 86.7767 33.9998 67.9994L31.9993 67.9994C31.9993 87.8816 48.1172 103.999 67.9996 103.999L67.9996 101.999ZM86.9956 101.999L67.9996 101.999L67.9996 103.999L86.9956 103.999L86.9956 101.999Z" fill="#F65719" mask="url(#path-6-inside-3_41_588)"/>
<mask id="path-8-inside-4_41_588" fill="white">
<path fill-rule="evenodd" clip-rule="evenodd" d="M108 86.995C108 95.8338 115.166 102.999 124.004 102.999L143 102.999C162.33 102.999 178 87.3292 178 67.9994C178 48.6697 162.33 32.9998 143 32.9998C123.67 32.9998 108 48.6697 108 67.9994L108 86.995Z"/>
</mask>
<path fill-rule="evenodd" clip-rule="evenodd" d="M108 86.995C108 95.8338 115.166 102.999 124.004 102.999L143 102.999C162.33 102.999 178 87.3292 178 67.9994C178 48.6697 162.33 32.9998 143 32.9998C123.67 32.9998 108 48.6697 108 67.9994L108 86.995Z" fill="url(#paint3_linear_41_588)"/>
<path d="M124.004 101.999C115.718 101.999 109.001 95.2814 109.001 86.995L107 86.995C107 96.3862 114.613 103.999 124.004 103.999L124.004 101.999ZM143 101.999L124.004 101.999L124.004 103.999L143 103.999L143 101.999ZM177 67.9994C177 86.7767 161.778 101.999 143 101.999L143 103.999C162.883 103.999 179.001 87.8816 179.001 67.9994L177 67.9994ZM143 34C161.778 34 177 49.2221 177 67.9994L179.001 67.9994C179.001 48.1172 162.883 31.9995 143 31.9995L143 34ZM109.001 67.9994C109.001 49.2221 124.223 34 143 34L143 31.9995C123.118 31.9995 107 48.1172 107 67.9994L109.001 67.9994ZM109.001 86.995L109.001 67.9994L107 67.9994L107 86.995L109.001 86.995Z" fill="#418F60" mask="url(#path-8-inside-4_41_588)"/>
<defs>
<linearGradient id="paint0_linear_41_588" x1="143" y1="107.999" x2="143" y2="177.998" gradientUnits="userSpaceOnUse">
<stop stop-color="#343EFC"/>
<stop offset="1" stop-color="#4952F9"/>
</linearGradient>
<linearGradient id="paint1_linear_41_588" x1="103" y1="142.998" x2="32.9996" y2="142.998" gradientUnits="userSpaceOnUse">
<stop stop-color="#F93949"/>
<stop offset="1" stop-color="#F1293A"/>
</linearGradient>
<linearGradient id="paint2_linear_41_588" x1="67.9996" y1="102.999" x2="67.9996" y2="32.9998" gradientUnits="userSpaceOnUse">
<stop stop-color="#FE743A"/>
<stop offset="1" stop-color="#F55E24"/>
</linearGradient>
<linearGradient id="paint3_linear_41_588" x1="108" y1="67.9994" x2="178" y2="67.9994" gradientUnits="userSpaceOnUse">
<stop stop-color="#27B560"/>
<stop offset="1" stop-color="#27A057"/>
</linearGradient>
</defs>
</svg>
